<svg width="243" height="40" viewBox="0 0 243 40" fill="none" xmlns="http://www.w3.org/2000/svg">
<path d="M21.7143 0H31.4286V40H22.5714L10.2857 15.4286V40H0.571411V0H10L21.7143 23.4286V0Z" fill="black"/>
<path d="M43.4286 0H62.2857V8.57143H53.1429V15.7143H61.1429V24.2857H53.1429V31.4286H62.2857V40H43.4286V0Z" fill="black"/>
<path d="M73.7143 0L80.5714 11.4286L87.4286 0H98.8571L86.8571 20L98.2857 40H86.8571L80.5714 28.5714L74.2857 40H62.2857L74.2857 20L62.8571 0H73.7143Z" fill="black"/>
<path d="M110.286 20C110.286 9.14286 119.429 0 130.857 0C142.286 0 151.429 9.14286 151.429 20C151.429 30.8571 142.286 40 130.857 40C119.429 40 110.286 30.8571 110.286 20ZM141.714 20C141.714 14.2857 136.857 9.14286 130.857 9.14286C124.857 9.14286 120 14.2857 120 20C120 25.7143 124.857 30.8571 130.857 30.8571C136.857 30.8571 141.714 25.7143 141.714 20Z" fill="black"/>
<path d="M162.857 0H176.571C184 0 188.571 2.85714 188.571 10.2857C188.571 16 186.286 19.4286 181.143 20L189.714 40H179.429L172 21.1429H171.429V40H162.857V0ZM171.429 13.7143H174.857C177.714 13.7143 179.429 12.5714 179.429 10C179.429 7.42857 177.714 6.85714 174.857 6.85714H171.429V13.7143Z" fill="black"/>
<path fill-rule="evenodd" clip-rule="evenodd" d="M216.571 0H219.429L242.286 40H231.429L228.455 34.2857L218.065 34.2857H210.519L208 40H198.286L216.571 0ZM218 5.71429L218 8.41162V5.71429H218.001L218 5.71428L218 5.71429ZM219.782 17.625L213.916 30.4286H218H218.001H226.439L220.574 17.625L220.178 16.6667L219.782 17.625ZM220.178 10.7441L223.368 18.9958L220.178 30.4286L216.988 18.9958L220.178 10.7441Z" fill="black"/>
</svg>
